<svg width="30" height="30" viewBox="0 0 30 30" fill="none" xmlns="http://www.w3.org/2000/svg">
<mask id="path-1-inside-1_209_1868" fill="white">
<path fill-rule="evenodd" clip-rule="evenodd" d="M24.8438 27H5.15726C4.09767 27 3.31523 25.9545 3.71487 24.993C5.56915 20.547 9.9254 18 14.9998 18C20.0757 18 24.4319 20.547 26.2862 24.993C26.6859 25.9545 25.9034 27 24.8438 27ZM8.875 8.99998C8.875 5.69098 11.6235 2.99998 14.9998 2.99998C18.3776 2.99998 21.1246 5.69098 21.1246 8.99998C21.1246 12.309 18.3776 15 14.9998 15C11.6235 15 8.875 12.309 8.875 8.99998ZM29.9335 26.454C28.8203 21.4155 25.3384 17.6969 20.7555 16.0094C23.184 14.0939 24.6004 10.9964 24.0798 7.6049C23.4765 3.6704 20.1354 0.521965 16.1022 0.0629653C10.5348 -0.571535 5.81261 3.67348 5.81261 8.99998C5.81261 11.835 7.15394 14.3609 9.24555 16.0094C4.66115 17.6969 1.18075 21.4155 0.066036 26.454C-0.338199 28.2855 1.1685 30 3.08096 30H26.9186C28.8326 30 30.3393 28.2855 29.9335 26.454Z"/>
</mask>
<path d="M3.71487 24.993L-0.899863 23.0683L-0.902189 23.0739L3.71487 24.993ZM26.2862 24.993L30.9033 23.0739L30.9009 23.0683L26.2862 24.993ZM29.9335 26.454L25.0512 27.5326L25.0519 27.5355L29.9335 26.454ZM20.7555 16.0094L17.659 12.0837L10.6462 17.6152L19.0278 20.7015L20.7555 16.0094ZM24.0798 7.6049L19.1375 8.36271L19.1376 8.36353L24.0798 7.6049ZM16.1022 0.0629653L15.5361 5.03081L15.5369 5.0309L16.1022 0.0629653ZM9.24555 16.0094L10.9727 20.7016L19.3595 17.6145L12.3406 12.0825L9.24555 16.0094ZM0.066036 26.454L-4.81591 25.3739L-4.81646 25.3763L0.066036 26.454ZM24.8438 22H5.15726V32H24.8438V22ZM5.15726 22C6.30994 22 7.31742 22.5722 7.92951 23.412C8.56104 24.2785 8.87506 25.6053 8.33193 26.912L-0.902189 23.0739C-2.85861 27.7809 1.03546 32 5.15726 32V22ZM8.3296 26.9176C9.28709 24.6218 11.6121 23 14.9998 23V13C8.23874 13 1.8512 16.4721 -0.89986 23.0683L8.3296 26.9176ZM14.9998 23C18.3894 23 20.7141 24.6221 21.6715 26.9176L30.9009 23.0683C28.1498 16.4718 21.762 13 14.9998 13V23ZM21.6692 26.912C21.126 25.6053 21.44 24.2785 22.0716 23.412C22.6837 22.5722 23.6911 22 24.8438 22V32C28.9656 32 32.8597 27.7809 30.9033 23.0739L21.6692 26.912ZM13.875 8.99998C13.875 8.54972 14.2866 7.99998 14.9998 7.99998V-2.00002C8.96041 -2.00002 3.875 2.83223 3.875 8.99998H13.875ZM14.9998 7.99998C15.7137 7.99998 16.1246 8.54892 16.1246 8.99998H26.1246C26.1246 2.83303 21.0415 -2.00002 14.9998 -2.00002V7.99998ZM16.1246 8.99998C16.1246 9.45103 15.7137 9.99998 14.9998 9.99998V20C21.0415 20 26.1246 15.1669 26.1246 8.99998H16.1246ZM14.9998 9.99998C14.2866 9.99998 13.875 9.45023 13.875 8.99998H3.875C3.875 15.1677 8.96041 20 14.9998 20V9.99998ZM34.8158 25.3753C33.3162 18.5878 28.5801 13.5624 22.4832 11.3174L19.0278 20.7015C22.0967 21.8315 24.3245 24.2432 25.0512 27.5326L34.8158 25.3753ZM23.852 19.9352C27.5985 16.9801 29.8337 12.1352 29.0219 6.84627L19.1376 8.36353C19.367 9.8576 18.7696 11.2077 17.659 12.0837L23.852 19.9352ZM29.022 6.84709C28.0652 0.607238 22.866 -4.19955 16.6676 -4.90497L15.5369 5.0309C17.4048 5.24348 18.8877 6.73356 19.1375 8.36271L29.022 6.84709ZM16.6684 -4.90488C8.21508 -5.86827 0.812607 0.607254 0.812607 8.99998H10.8126C10.8126 6.7397 12.8546 4.7252 15.5361 5.03081L16.6684 -4.90488ZM0.812607 8.99998C0.812607 13.4583 2.92986 17.398 6.15053 19.9364L12.3406 12.0825C11.378 11.3239 10.8126 10.2116 10.8126 8.99998H0.812607ZM7.51836 11.3172C1.41878 13.5625 -3.31466 18.5882 -4.81591 25.3739L4.94799 27.534C5.67615 24.2427 7.90353 21.8314 10.9727 20.7016L7.51836 11.3172ZM-4.81646 25.3763C-5.98465 30.6692 -1.66902 35 3.08096 35V25C3.64022 25 4.15052 25.252 4.49653 25.6546C4.85633 26.0732 5.11757 26.7657 4.94853 27.5316L-4.81646 25.3763ZM3.08096 35H26.9186V25H3.08096V35ZM26.9186 35C31.6672 35 35.9889 30.6705 34.8151 25.3724L25.0519 27.5355C24.882 26.7687 25.1433 26.0744 25.5042 25.6546C25.8511 25.251 26.3614 25 26.9186 25V35Z" fill="black" mask="url(#path-1-inside-1_209_1868)"/>
</svg>
